<svg width="260.95" height="36.001" viewBox="0 0 260.95 36.001" xmlns="http://www.w3.org/2000/svg"><g id="svgGroup" stroke-linecap="round" fill-rule="evenodd" font-size="9pt" stroke="#000" stroke-width="mm" fill="#000000" style="stroke:#000;stroke-width:mm;fill:#000000"><path d="M 59.75 4.8 L 43.4 4.8 L 43.4 15.8 L 58.65 15.8 L 58.65 19.8 L 43.4 19.8 L 43.4 31.2 L 59.75 31.2 L 59.75 35.4 L 39 35.4 L 39 0.6 L 59.75 0.6 L 59.75 4.8 Z M 126.75 4.8 L 110.4 4.8 L 110.4 15.8 L 125.65 15.8 L 125.65 19.8 L 110.4 19.8 L 110.4 31.2 L 126.75 31.2 L 126.75 35.4 L 106 35.4 L 106 0.6 L 126.75 0.6 L 126.75 4.8 Z M 194.75 4.8 L 178.4 4.8 L 178.4 15.8 L 193.65 15.8 L 193.65 19.8 L 178.4 19.8 L 178.4 31.2 L 194.75 31.2 L 194.75 35.4 L 174 35.4 L 174 0.6 L 194.75 0.6 L 194.75 4.8 Z M 162.4 2.65 L 162.4 7.65 L 162.2 7.65 Q 160.55 6.05 158.05 5.075 Q 155.55 4.1 152.6 4.1 Q 146.9 4.1 144.225 7.8 Q 141.55 11.5 141.55 18 Q 141.55 24.55 144.225 28.25 Q 146.9 31.95 152.55 31.95 Q 155.4 31.95 157.925 31 Q 160.45 30.05 162.2 28.35 L 162.4 28.35 L 162.4 33.35 Q 160.3 34.65 157.75 35.325 Q 155.2 36 152.45 36 Q 147.4 36 143.875 33.75 Q 140.35 31.5 138.575 27.45 Q 136.8 23.4 136.8 18 Q 136.8 12.6 138.575 8.55 Q 140.35 4.5 143.875 2.25 Q 147.4 0 152.45 0 Q 155.2 0 157.75 0.675 Q 160.3 1.35 162.4 2.65 Z M 96.25 35.4 L 90.95 35.4 L 83.9 21.75 L 83.4 21.75 L 75.4 21.75 L 75.4 35.4 L 71 35.4 L 71 0.6 L 82.8 0.6 Q 89.05 0.6 92.1 3.225 Q 95.15 5.85 95.15 10.9 Q 95.15 14.65 93.5 17.25 Q 91.85 19.85 88.65 20.95 L 96.25 35.4 Z M 244.05 35.4 L 240.5 26.2 L 223.75 26.2 L 220.2 35.4 L 215.8 35.4 L 229.2 0.6 L 235.3 0.6 L 248.7 35.4 L 244.05 35.4 Z M 11.75 35.4 L 0 35.4 L 0 0.6 L 11.75 0.6 Q 19.5 0.6 23.6 5.2 Q 27.7 9.8 27.7 18 Q 27.7 26.2 23.6 30.8 Q 19.5 35.4 11.75 35.4 Z M 12.1 4.8 L 4.4 4.8 L 4.4 31.2 L 12.1 31.2 Q 17.5 31.2 20.225 27.675 Q 22.95 24.15 22.95 18 Q 22.95 11.85 20.225 8.325 Q 17.5 4.8 12.1 4.8 Z M 256.55 35.4 L 256.55 0.6 L 260.95 0.6 L 260.95 35.4 L 256.55 35.4 Z M 225.2 22.45 L 239.05 22.45 L 232.15 4.45 L 225.2 22.45 Z M 82.8 4.8 L 75.4 4.8 L 75.4 17.6 L 82.85 17.6 Q 86.75 17.6 88.575 16.075 Q 90.4 14.55 90.4 10.9 Q 90.4 7.55 88.575 6.175 Q 86.75 4.8 82.8 4.8 Z" vector-effect="non-scaling-stroke"/></g></svg>